<?xml version="1.0" encoding="UTF-8" standalone="no"?>
<!-- Created with Inkscape (http://www.inkscape.org/) -->

<svg
   version="1.1"
   id="svg944"
   width="100.00001"
   height="100"
   viewBox="0 0 100.00001 100"
   xmlns="http://www.w3.org/2000/svg"
   xmlns:svg="http://www.w3.org/2000/svg">
  <defs
     id="defs445" />
  <path
     d="m 26.986307,7.9327683 c 1.06885,0 2.271234,-0.152975 3.318804,0.06498 2.997271,0.623655 5.350163,2.7055067 6.182207,5.6966237 0.497235,1.788181 0.455402,3.892759 0.455402,5.741712 V 29.574609 62.719766 73.24823 c 0,1.56211 -0.148956,3.481219 1.171343,4.61439 2.122863,1.821817 5.334098,1.091842 6.377375,-1.494848 0.457409,-1.134146 0.260233,-2.502847 0.260233,-3.704457 V 65.64434 25.675178 18.071288 c 0,-3.497068 -0.287875,-8.4781017 -2.147461,-10.1385197 1.06885,0 2.271232,-0.152975 3.318803,0.06498 2.997271,0.623655 5.341831,2.6482687 6.173875,5.6393857 0.497234,1.788182 0.463734,3.949997 0.463734,5.79895 V 29.574609 62.719766 73.24823 c 0,1.56211 -0.148956,3.481219 1.171342,4.61439 2.122864,1.821817 5.334097,1.091842 6.377373,-1.494848 0.45741,-1.134146 0.260233,-2.502847 0.260233,-3.704457 V 65.64434 25.675178 18.071288 c 0,-3.497049 -0.44741,-8.0002 -2.147461,-10.1385207 1.06885,0 2.271233,-0.152975 3.318805,0.06498 2.997275,0.623656 5.308756,2.3339957 6.140799,5.3251127 0.481622,1.731854 0.496811,4.127848 0.496811,5.918252 v 9.748578 32.170297 9.748579 c 0,1.528384 -0.286786,3.386269 0.06501,4.874287 0.474781,2.008402 2.500616,3.554335 4.62036,3.054622 1.543829,-0.364012 2.694085,-1.512787 3.058567,-3.054622 0.324464,-1.372598 0.06501,-3.074896 0.06501,-4.484342 V 62.134852 25.675178 c 0,-6.152951 0.06734,-14.54971 -2.407695,-18.3273247 -2.255807,-3.686308 -6.118112,-6.08765 -10.281849,-6.95398403 -1.659988,-0.345406 -3.380104,-0.259963 -5.075818,-0.259963 H 20.739146 8.8304961 c -1.768747,0 -3.940573,-0.340809 -5.6614893,0.06499 -2.83317147,0.668079 -4.4089788,4.58548903 -1.9522378,6.69402803 1.5463284,1.327132 3.5798771,1.039842 5.4662661,1.039842 3.8941869,0 8.7711299,-0.879107 11.9086499,1.949715 3.179279,3.0840077 2.733133,8.5759207 2.733133,13.0630927 V 55.115879 68.76388 c 0,2.174714 -0.210647,4.466019 0,6.629037 0.214941,2.207073 2.469385,3.967085 4.68537,3.444561 1.54383,-0.364012 2.694089,-1.512787 3.058571,-3.054622 0.310796,-1.314884 0.06501,-2.939586 0.06501,-4.289372 V 62.524797 24.895292 c 0,-5.418591 0.184258,-15.5423297 -2.147462,-16.9625237 M 0.04542633,92.160469 v 7.79886 c 3.12082777,0 6.28761077,-1.43382 8.58984677,-3.50948 0.883914,-0.79705 1.6957129,-1.69353 2.5379089,-2.53464 0.361026,-0.3605 0.7962,-0.97485 1.366565,-0.97485 0.570366,0 1.00554,0.61435 1.366567,0.97485 0.954449,0.95322 1.869502,2.02244 2.928357,2.85966 3.012889,2.38196 6.706132,3.722591 10.542084,2.92457 2.56524,-0.53384 4.987381,-1.99145 6.832832,-3.83451 l 2.147462,-2.14469 c 0.319386,-0.31448 0.673326,-0.77988 1.171342,-0.77988 0.570444,0 1.005598,0.61435 1.366567,0.97485 0.842195,0.84111 1.653935,1.73778 2.537909,2.53464 2.425265,2.1868 6.039833,3.832941 9.370741,3.50948 3.041001,-0.29518 6.025582,-1.75864 8.199396,-3.89943 l 2.342685,-2.33966 c 0.368585,-0.36303 0.780701,-0.89375 1.366567,-0.74732 0.481622,0.1201 0.836146,0.60753 1.171347,0.94229 0.842196,0.84111 1.653933,1.73759 2.537909,2.53464 2.425262,2.1868 6.039829,3.832941 9.370738,3.50948 2.853975,-0.27705 5.680427,-1.59038 7.808951,-3.50948 0.883976,-0.79705 1.695713,-1.69353 2.537908,-2.53464 0.36097,-0.3605 0.796122,-0.97485 1.366568,-0.97485 0.57025,0 1.005597,0.61435 1.366567,0.97485 0.842195,0.84111 1.653939,1.73759 2.537908,2.53464 2.302272,2.07566 5.469002,3.50948 8.589848,3.50948 v -7.79886 c -2.673206,-0.21076 -4.330846,-2.76548 -6.051936,-4.484343 -1.466131,-1.464238 -3.618083,-2.336152 -5.661491,-2.534634 -2.623024,-0.254628 -5.609171,0.811476 -7.418506,2.729604 -1.484872,1.574203 -3.5355,4.498773 -6.051933,4.289373 -2.53225,-0.21076 -4.245335,-2.87505 -5.856714,-4.484343 -1.797817,-1.795494 -4.696304,-2.779908 -7.22328,-2.534634 -2.136727,0.207451 -4.369499,1.152866 -5.856714,2.729604 -1.513765,1.604813 -3.810963,4.844843 -6.442385,4.224453 -2.38583,-0.56269 -3.850789,-2.80603 -5.466266,-4.419423 -1.797815,-1.795494 -4.696303,-2.779908 -7.223279,-2.534634 -2.136724,0.207451 -4.369499,1.152866 -5.856713,2.729604 -1.484872,1.574203 -3.535503,4.498773 -6.051937,4.289373 -2.532248,-0.21076 -4.245336,-2.87505 -5.856714,-4.484343 -1.797816,-1.795494 -4.696264,-2.779908 -7.22328,-2.534634 -2.0871169,0.202579 -4.1315789,1.095354 -5.6614889,2.534634 -1.791256,1.685133 -3.3323329,4.269873 -6.05193677,4.484343 z"
     id="path1085"
	 fill="param(fill) #fff" stroke="param(outline) #000" stroke-width="param(outline-width) 1" />
</svg>
