<?xml version="1.0" encoding="UTF-8" standalone="no"?>
<svg xmlns:dc="http://purl.org/dc/elements/1.1/" xmlns:cc="http://creativecommons.org/ns#" xmlns:rdf="http://www.w3.org/1999/02/22-rdf-syntax-ns#" xmlns:svg="http://www.w3.org/2000/svg" xmlns="http://www.w3.org/2000/svg" id="svg2" viewBox="0 0 14 14" width="14" height="14" version="1.1">
  <path id="path824" d="M 1 1 L 0 2.5 L 0 3 L 5 3 L 5 2.5 L 4 1 L 1 1 z M 10 1 L 9 2.5 L 9 3 L 14 3 L 14 2.5 L 13 1 L 10 1 z M 0 4 L 0 13 L 5 13 C 5 12 5 10 7 10 C 9 10 9 12 9 13 L 14 13 L 14 4 L 9 4 L 9 6 L 7 6 L 5 6 L 5 4 L 0 4 z M 2 6 L 3 6 L 3 7 L 2.5 8 L 2 7 L 2 6 z M 11 6 L 12 6 L 12 7 L 11.5 8 L 11 7 L 11 6 z " fill="param(fill) #fff" stroke="param(outline) #000" stroke-width="param(outline-width) 1" />
</svg>
