<?xml version="1.0" encoding="UTF-8" standalone="no"?>
<svg
   id="svg2"
   viewBox="0 0 14 14"
   width="14"
   height="14"
   version="1.1"
   sodipodi:docname="carto-ruins.svg"
   inkscape:version="1.1.1 (3bf5ae0d25, 2021-09-20)"
   xmlns:inkscape="http://www.inkscape.org/namespaces/inkscape"
   xmlns:sodipodi="http://sodipodi.sourceforge.net/DTD/sodipodi-0.dtd"
   xmlns="http://www.w3.org/2000/svg"
   xmlns:svg="http://www.w3.org/2000/svg">
  <path
     id="path824"
     d="M 1,1 0.39080842,1.9137874 0.37616645,2.9877235 5,3 V 2.5 L 4,1 Z M 0,4.8588209 V 13 h 5 c 0,-1 0,-3 2,-3 0.6438681,0 0.7876764,0.96811 0.7876764,0.96811 l 1.0960716,0.594004 c 0,0 0.023731,0.511807 0.027019,0.86754 7.536e-4,0.08153 -0.7273108,0.559471 -0.7273108,0.559471 l 5.8038768,0.0058 -6.53e-4,-0.860291 -0.818091,-0.02755 L 10.8129,10.898125 10.789494,8.6165748 9.1720343,7.2047001 6.665913,7.1975768 6.1456938,6 H 5 V 4 H 0.76723294 Z M 2,6 H 3 V 7 L 2.5,8 2,7 Z" fill="param(fill) #fff" stroke="param(outline) #000" stroke-width="param(outline-width) 1" />
</svg>
