<?xml version="1.0" encoding="UTF-8" standalone="no"?>
<svg
    width="14"
    height="14"
    version="1.1"
    id="svg1"
    sodipodi:docname="dash-pattern.svg"
    inkscape:version="1.3 (0e150ed6c4, 2023-07-21)"
    xmlns:inkscape="http://www.inkscape.org/namespaces/inkscape"
    xmlns:sodipodi="http://sodipodi.sourceforge.net/DTD/sodipodi-0.dtd"
    xmlns="http://www.w3.org/2000/svg"
>
<!--    <path-->
<!--        d="-->
<!--            M 0,0 15,0 15,15 0,15-->
<!--        "-->
<!--        fill="#fff"-->
<!--        id="back"/>-->
    <path
        d="
            m 2,4.5
              2,-2
              0,1.5
              6,0
              0,-1.5
              2,2
              -2,2
              0,-1.5
              -6,0
              0,1.5
              -2,-2
              2,-2

            M 2,9.5
              a 1.5 1.5 0 0 0 1.125 -0.53
              a 1.5 1.5 0 0 1 2.5 0
              a 1.5 1.5 0 0 0 2.5 0
              a 1.5 1.5 0 0 1 2.5 0
              a 1.5 1.5 0 0 0 1.125 0.53

            M 2,12
              a 1.5 1.5 0 0 0 1.125 -0.53
              a 1.5 1.5 0 0 1 2.5 0
              a 1.5 1.5 0 0 0 2.5 0
              a 1.5 1.5 0 0 1 2.5 0
              a 1.5 1.5 0 0 0 1.125 0.53

        "
        fill="transparent"
        stroke="#ffffff"
        stroke-opacity="0.5"
        stroke-width="3"
        stroke-linecap="round"
        stroke-linejoin="round"
    />

    <path
        d="
            m 2,4.5
              2,-2
              0,1.5
              6,0
              0,-1.5
              2,2
              -2,2
              0,-1.5
              -6,0
              0,1.5
              -2,-2
        "
        fill="param(fill) #000"
    />

    <path
        d="
            M 2,9.5
            a 1.5 1.5 0 0 0 1.125 -0.53
            a 1.5 1.5 0 0 1 2.5 0
            a 1.5 1.5 0 0 0 2.5 0
            a 1.5 1.5 0 0 1 2.5 0
            a 1.5 1.5 0 0 0 1.125 0.53
        "
        fill="transparent"
        stroke-linecap="round"
        stroke="param(outline) #000"
        stroke-width="0.75"/>

    <path
        d="
            M 2,12
            a 1.5 1.5 0 0 0 1.125 -0.53
            a 1.5 1.5 0 0 1 2.5 0
            a 1.5 1.5 0 0 0 2.5 0
            a 1.5 1.5 0 0 1 2.5 0
            a 1.5 1.5 0 0 0 1.125 0.53
        "
        fill="transparent"
        stroke-linecap="round"
        stroke="param(outline) #000"
        stroke-width="0.75"/>
</svg>
